<?xml version="1.0" encoding="utf-8"?>
<!-- Generator: Adobe Illustrator 19.1.0, SVG Export Plug-In . SVG Version: 6.00 Build 0)  -->
<!DOCTYPE svg PUBLIC "-//W3C//DTD SVG 1.1//EN" "http://www.w3.org/Graphics/SVG/1.1/DTD/svg11.dtd">
<svg version="1.1" id="Layer_1" xmlns="http://www.w3.org/2000/svg" xmlns:xlink="http://www.w3.org/1999/xlink" x="0px" y="0px"
	 width="87.2px" height="79px" viewBox="0 0 87.2 79" enable-background="new 0 0 87.2 79" xml:space="preserve">
<g>
	<g>
		<path d="M16.3,70.7c11.1-23.1,35.3-35.3,51.2-54.5c2-2.5-1.5-6-3.5-3.5c-16.2,19.6-40.7,32-52,55.6C10.6,71.1,14.9,73.6,16.3,70.7
			L16.3,70.7z"/>
	</g>
</g>
<g>
	<g>
		<path d="M13.6,15.9c13.7,19.2,37.7,29.4,47.9,51.2c1.4,2.9,5.7,0.4,4.3-2.5C55.6,42.6,31.7,32.6,18,13.4
			C16.1,10.8,11.8,13.3,13.6,15.9L13.6,15.9z"/>
	</g>
</g>
</svg>
