<?xml version="1.0" encoding="utf-8"?>
<!-- Generator: Adobe Illustrator 19.1.0, SVG Export Plug-In . SVG Version: 6.00 Build 0)  -->
<svg version="1.1" xmlns="http://www.w3.org/2000/svg" xmlns:xlink="http://www.w3.org/1999/xlink" x="0px" y="0px"
	 viewBox="0 0 127.7 127.4" style="enable-background:new 0 0 127.7 127.4;" xml:space="preserve">
<style type="text/css">
	.st0{fill:#FFFFFF;}
</style>
<g id="Layer_1">
	<g>
		<path class="st0" d="M-1221,89.3c-0.6-1.2-0.1-3-0.1-4.3c0.2-3.3,0.4-6.7,0.6-10c0.2-2.5-0.3-6.2,2.8-7c1.9-0.5,5.1-0.1,7,0.2
			c3.4,0.5,3.8,2.9,3.8,5.6c0.1-2.3,0,5.6-0.1,2.2c0,3.8-0.6,7.6-1.3,11.3c-0.5,2.5-0.9,5.1-4.2,4.6
			C-1214.6,91.5-1219.8,91.8-1221,89.3z"/>
		<path class="st0" d="M-1181.9,65.2c0,29.1-19,53.7-45.3,62.1c0.8-1.7,1.2-3.7,1.7-5.9c1.3-6.8,1.9-13.7,2.9-20.5
			c0.3-2.2,0.6-3.6,3.1-3.5c2.9,0.1,5.8,1.1,8.8,1.1c4.7,0,6.8-1.8,8.3-6.1c2.1-6.2,2.8-13.1,2.5-19.7c-0.1-3.7-0.8-7.6-4.4-9.5
			c-1.7-0.9-3.9-1.3-5.9-1.5c-2.2-0.2-4.9,0.5-7.1-0.2c-4.3-1.6-1.8-9.2-2.3-12.7c-0.5-3.9-2.9-4.4-6.6-4.8
			c-7.2-0.6-14.6-0.9-21.8-1c-3.5-0.1-6.9-0.1-10.4-0.1c0.6-4.2,2.8-8.2,6-11c2.1-1.8,4.4-3.5,6.2-5.6c3.3-4,2.1-8.6,0.4-12.6
			c-1.6-3.7-4.9-7.2-10.2-8.9c0.3,0.2,5.4,3.7,6.5,7.4c1,3.5,0.4,6.2-3.7,10c-2.1,2-4.4,3.4-6.4,5.5c-2,2.1-3.7,4.7-3.8,7.6
			c0,1.5,0.4,2.9,0.9,4.3c0.2,0.7,0.8,2,1.4,3.4c-10.3,0.1-20.7,0.6-30.9,1.7c-2.4,0.3-6.2,0.3-7.4,2.8c-1.1,2.3-0.4,5.9-0.4,8.4
			c0.3-8,0.5,8.7,0.1,2.6c0.7,14.7,2.4,29.4,4.4,44.1c0.4,2.6,0.7,5.3,1.2,8c-11.3-11.7-18.3-27.7-18.3-45.3
			c0-30.2,20.5-55.6,48.4-63.1c-0.4,1.6-0.3,3.2,0.6,4.8c0.9,1.6,2.2,2.8,3.3,4.2c1.9,2.4,2.9,5.7,2.7,8.9c-0.1,0.6-0.1,1.3-0.3,1.9
			c-0.5,1.4,3.2-2.8,4-4.2c0.9-1.6,1-2.4,1-3.4c-0.1-2-1.6-4-2.6-5.5c-1-1.5-2.3-2.6-3.4-4.1c-1-1.3-1.4-2.4-1.5-3.5
			c4.2-0.9,8.6-1.3,13.1-1.3C-1211.2,0-1181.9,29.2-1181.9,65.2z"/>
	</g>
	<path class="st0" d="M-1085.5-1.6c-36,0-65.2,29.2-65.2,65.2s29.2,65.2,65.2,65.2c36,0,65.2-29.2,65.2-65.2S-1049.5-1.6-1085.5-1.6
		z M-1094.1,11.6h17.3v27l-3.8,42.4h-9.3l-4.2-42.4V11.6z M-1076.8,115.8h-19.1V95.2h20.8L-1076.8,115.8z"/>
	<path class="st0" d="M-757.5-2c-36.3,0-65.7,29.4-65.7,65.7c0,6.8,1,13.4,3,19.6c0.5-4.5,2.5-8.9,6-12.3c8-8,20.8-8.1,28.9-0.5
		c0.2-0.2,0.4-0.5,0.7-0.7c8.1-8.1,21.3-8.1,29.4,0c8.1,8.1,8.1,21.3,0,29.4c-0.2,0.2-0.4,0.4-0.7,0.6l0.5,0.5l-24.9,24.9
		c7.1,2.7,14.8,4.1,22.9,4.1c36.3,0,65.7-29.4,65.7-65.7C-691.9,27.4-721.3-2-757.5-2z M-755.6,35.9l-11.2-11.2
		c-3.1-3.1-3.1-8.1,0-11.2c3-3,7.9-3.1,11-0.2c0.1-0.1,0.2-0.2,0.2-0.3c3.1-3.1,8.1-3.1,11.2,0c3.1,3.1,3.1,8.1,0,11.2
		c-0.1,0.1-0.2,0.2-0.3,0.2l0.2,0.2L-755.6,35.9z M-717.7,59.9c-0.1,0.1-0.2,0.2-0.3,0.3l0.3,0.3l-14.8,14.8l-14.8-14.8
		c-4.1-4.1-4.1-10.7,0-14.8c4-4,10.5-4.1,14.6-0.2c0.1-0.1,0.2-0.2,0.3-0.3c4.1-4.1,10.7-4.1,14.8,0
		C-713.6,49.2-713.6,55.8-717.7,59.9z"/>
	<path class="st0" d="M-921.5-2c-36.3,0-65.7,29.4-65.7,65.7c0,36.3,29.4,65.7,65.7,65.7c36.3,0,65.7-29.4,65.7-65.7
		C-855.9,27.4-885.3-2-921.5-2z M-896.6,67.4h-21v20.4h-8V67.4h-20.9v-7.5h20.9V39.6h8v20.4h21V67.4z"/>
	<path class="st0" d="M-429.5-1.9c-36.3,0-65.7,29.4-65.7,65.7c0,16.1,5.8,30.9,15.5,42.3V85.9c12.6-7.3,28.3-7.1,40.9,0.5v42.3
		c2.4,0.3,4.8,0.6,7.3,0.6v-29.2c9-5.2,20.1-5.1,29,0.3v23.1c22.8-10.3,38.7-33.2,38.7-59.9C-363.9,27.4-393.3-1.9-429.5-1.9z
		 M-459.3,75.5c-10,0-18.1-8.1-18.1-18.1c0-10,8.1-18.1,18.1-18.1c10,0,18.1,8.1,18.1,18.1C-441.2,67.3-449.3,75.5-459.3,75.5z
		 M-417,92.7c-7.1,0-12.9-5.8-12.9-12.9c0-7.1,5.8-12.9,12.9-12.9s12.9,5.8,12.9,12.9C-404.2,87-409.9,92.7-417,92.7z M-400.3,34.9
		v19.8h-7.7V34.9h-20.3v-7.2h20.3V7.9h7.7v19.8h20.3v7.2H-400.3z"/>
	<g>
		<rect x="-647.5" y="66.7" class="st0" width="56" height="6.3"/>
		<rect x="-645.4" y="39.6" class="st0" width="56" height="6.3"/>
		<rect x="-639.1" y="53.2" class="st0" width="56" height="6.3"/>
		<path class="st0" d="M-530.3,63.7c0,36-29.2,65.2-65.2,65.2c-28.1,0-52-17.7-61.2-42.6c0.1,0,0.3,0,0.4,0h67l21.4,11.6l-9.7-11.8
			c4.5-0.9,7.9-4.9,7.9-9.6V39.2c0-5.4-4.4-9.8-9.8-9.8h-71.6c11.5-18.6,32.1-31,55.5-31C-559.5-1.6-530.3,27.7-530.3,63.7z"/>
		<rect x="-647.5" y="66.7" class="st0" width="56" height="6.3"/>
		<rect x="-645.4" y="39.6" class="st0" width="56" height="6.3"/>
		<rect x="-639.1" y="53.2" class="st0" width="56" height="6.3"/>
		<rect x="-645.4" y="39.6" class="st0" width="56" height="6.3"/>
		<rect x="-639.1" y="53.2" class="st0" width="56" height="6.3"/>
		<rect x="-647.5" y="66.7" class="st0" width="56" height="6.3"/>
	</g>
	<path class="st0" d="M-201.8,63.7c0,35.2-28.5,63.7-63.7,63.7c-5.5,0-10.8-0.7-15.9-2c0-0.3,0-0.6,0-0.9c0-14.2,0-28.4,0-42.5
		c0-3.7,0-3.7,3.8-3.7c3,0,6,0,8.9,0c1,0,1.8-0.1,1.9-1.4c0.4-4.4,0.8-8.9,1.2-13.3c0.2-1.6-0.5-2.2-2.1-2.2c-3.9,0.1-7.8,0-11.7,0
		c-1.4,0-2.1-0.4-2.1-1.9c0-3-0.1-6.1,0.1-9.1c0.2-4,1.5-5.1,5.5-5.2c2.8,0,5.6,0,8.3,0c1.4,0,2-0.5,2-1.9c0-4.5,0-9.1,0-13.6
		c0-1.2-0.5-1.8-1.7-1.8c-6.2,0.2-12.4-0.5-18.6,0.4c-6.2,0.9-11.4,3.6-14,9.7c-1.1,2.6-1.6,5.3-1.6,8.1c-0.1,3.9,0,7.9,0,11.8
		c0,3.3,0,3.3-3.3,3.3c-1.9,0-3.8,0-5.6,0c-1.4,0-2,0.5-2,1.9c0.1,4.3,0.1,8.7,0,13c0,1.5,0.6,2.1,2.1,2c2.1,0,4.1,0.1,6.2,0
		c1.9-0.1,2.6,0.6,2.6,2.6c-0.1,7.8,0,15.5,0,23.3c0,4,0,8,0,12c-16.7-11.5-27.7-30.7-27.7-52.5c0-35.2,28.5-63.7,63.7-63.7
		C-230.4,0-201.8,28.5-201.8,63.7z"/>
	<path class="st0" d="M-37.8,63.7c0,35.2-28.5,63.7-63.7,63.7c-10.7,0-20.8-2.7-29.6-7.3c0.9,0.2,1.9,0.3,2.8,0.4
		c0.6,0.1,1.2,0.2,1.7,0.3h9.9c2.6-0.4,5.1-0.7,7.7-1.2c24.3-4.9,42.9-23.7,48-48.5c0.9-4.5,1.3-9.1,1.3-13.7c0-0.7,0.1-1.3,0.6-1.7
		c4-2.9,7-6.6,10.1-10.3v-0.4c-3.7,1.3-7.4,2.7-11.8,3.1c4-3.3,7.2-6.5,8.6-11.3c-1.1-0.1-1.6,0.4-2.3,0.8c-3.1,1.5-6.3,2.7-9.6,3.5
		c-0.8,0.2-1.6,0.4-2.3-0.3c-3.5-3.3-7.7-5.2-12.3-6.1h-6c-0.7,0.2-1.5,0.4-2.2,0.6C-97.7,37.9-104.6,48-103.4,59
		c0.2,1.9-0.1,2.4-2.1,2.1c-16.2-1.7-29.9-8.6-40.9-20.8c-1.5-1.6-1.8-1.6-2.7,0.4c-3.5,8-1.8,17.6,4.4,23.8
		c0.9,0.9,1.7,1.8,2.6,2.8c-2.4-0.1-4.6-0.6-6.7-1.5c-2.1-0.9-2.5-0.6-2.1,1.7c1.3,9,6.3,14.9,14.7,18.1c0.5,0.2,1.1,0.2,1.5,0.8
		c-2.1,0.7-4.3,0.4-6.3,0.4c-2.3,0-2.4,0.2-1.5,2.2c3.3,6.8,8.7,10.9,16.1,12.4c0.8,0.2,1.6,0.3,2.5,0.7c-4.2,3.5-8.9,5.7-14.1,7.2
		c-2.1,0.6-4.2,1-6.3,1.3c-12.8-11.7-20.9-28.5-20.9-47.2c0-35.2,28.5-63.7,63.7-63.7C-66.4,0-37.8,28.5-37.8,63.7z"/>
	<g>
		<g>
			<g>
				<path class="st0" d="M75.3,126.1c31.1-4.5,59.7-37.4,50.5-77.2c-0.3-1.1-2.1-2.6-3.3-2.7c-4-0.3-8-0.1-12.8-0.1
					c0,5.9,0,11.2,0,16.8c-2.7-0.1-4.6-0.2-7-0.4c0-5.7,0-10.8,0-16.6c-5.7,0-11,0-16.5,0c0.2-2.6,0.3-4.3,0.4-6.6
					c5.5,0,10.6,0,16.3,0c0-5.8,0-11,0-16.2c2.6,0,4.5,0,7,0c0,5.6,0,10.7,0,16c4.3,0,8.1,0,12,0c-5.3-19-29.2-37.1-50.8-38.7
					C41.4-1.9,16.9,12.1,5.4,37.8c-9.9,22.2-5.5,51.8,10,66.7c9-12,22.6-13.3,35-14.7c-1-5.5-1.9-10.5-2.9-16c-0.8,0-2.5,0-4.1,0
					c-14.3-0.3-24.2-11.2-23.2-25.4C21,37.7,29,28.2,40.8,24.8C55,20.8,69.6,23.1,84,22.5c0.1,0.7,0.3,1.4,0.4,2
					c-5,1.5-10,3.1-15.1,4.6c0.4,0.4,1,1.1,1.6,1.7c10.7,11.7,9.8,25.6-2.3,36c-1.4,1.2-2.9,2.4-4.1,3.7c-4,4.4-3.8,8,0.6,12
					c4,3.6,8.4,6.8,12.1,10.6c7.1,7.3,8,17.9,2.6,26.6C78.6,121.8,77.1,123.6,75.3,126.1z M59.2,127.3c7.2,0.4,11.9-3.1,13.8-10
					c2.3-8.6-8.8-23.4-18.3-23.3c-6.2,0.1-12.5,1.4-18.4,3.2c-3.3,1-6.5,3.8-8.6,6.6c-4.5,5.9-3.1,10.7,3.2,14.6
					C39.7,123.7,49.1,126.7,59.2,127.3z M65.2,54.3c-0.4-8.2-2.5-15.8-8.2-21.9c-3.6-3.9-8-5.8-13.5-4.5c-5.6,1.4-9,5-10.1,10.6
					c-1.8,9.1,0.6,17.3,5.8,24.7c4.3,6.2,10.6,8.2,16.9,6C62.5,66.9,65.4,62.2,65.2,54.3z"/>
				<path class="st0" d="M75.3,126.1c1.8-2.5,3.3-4.3,4.5-6.3c5.4-8.7,4.5-19.3-2.6-26.6c-3.7-3.8-8.1-7-12.1-10.6
					c-4.4-4-4.6-7.6-0.6-12c1.2-1.4,2.7-2.5,4.1-3.7c12.1-10.3,13-24.3,2.3-36c-0.6-0.7-1.2-1.3-1.6-1.7c5.1-1.6,10.1-3.1,15.1-4.6
					c-0.1-0.7-0.3-1.4-0.4-2c-14.4,0.6-28.9-1.7-43.2,2.3C29,28.2,21,37.7,20.2,48.5c-1.1,14.2,8.9,25.1,23.2,25.4
					c1.6,0,3.3,0,4.1,0c1,5.4,1.9,10.5,2.9,16c-12.5,1.4-26,2.7-35,14.7C-0.1,89.6-4.4,60,5.4,37.8c11.4-25.7,36-39.8,65.7-37.6
					c21.6,1.6,45.5,19.7,50.8,38.7c-3.9,0-7.7,0-12,0c0-5.3,0-10.4,0-16c-2.4,0-4.4,0-7,0c0,5.2,0,10.4,0,16.2c-5.8,0-10.9,0-16.3,0
					c-0.1,2.3-0.2,4.1-0.4,6.6c5.5,0,10.7,0,16.5,0c0,5.9,0,11,0,16.6c2.4,0.1,4.3,0.2,7,0.4c0-5.6,0-10.9,0-16.8
					c4.7,0,8.8-0.2,12.8,0.1c1.2,0.1,3,1.6,3.3,2.7C135,88.7,106.4,121.6,75.3,126.1z"/>
				<path class="st0" d="M59.2,127.3c-10.1-0.7-19.5-3.6-28.2-8.9c-6.3-3.8-7.7-8.7-3.2-14.6c2.1-2.8,5.3-5.6,8.6-6.6
					c5.9-1.8,12.2-3.1,18.4-3.2c9.5-0.1,20.6,14.6,18.3,23.3C71.1,124.3,66.4,127.7,59.2,127.3z"/>
				<path class="st0" d="M65.2,54.3c0.2,7.9-2.7,12.6-9.1,14.8c-6.4,2.2-12.6,0.2-16.9-6c-5.2-7.4-7.5-15.7-5.8-24.7
					c1.1-5.6,4.5-9.2,10.1-10.6c5.5-1.4,9.9,0.6,13.5,4.5C62.7,38.5,64.8,46.1,65.2,54.3z"/>
			</g>
		</g>
	</g>
</g>
<g id="Layer_2">
</g>
</svg>
