<svg xmlns="http://www.w3.org/2000/svg" viewBox="0 0 144 144" width="144" height="144"><style type="text/css">.st0{fill:#FFFFFF;}</style><path class="st0" d="M135.7 73.3c0 35.2-28.5 63.7-63.7 63.7-5.5 0-10.8-.7-15.9-2v-43.4c0-3.7 0-3.7 3.8-3.7h8.9c1 0 1.8-.1 1.9-1.4l1.2-13.3c.2-1.6-.5-2.2-2.1-2.2-3.9.1-7.8 0-11.7 0-1.4 0-2.1-.4-2.1-1.9 0-3-.1-6.1.1-9.1.2-4 1.5-5.1 5.5-5.2h8.3c1.4 0 2-.5 2-1.9v-13.6c0-1.2-.5-1.8-1.7-1.8-6.2.2-12.4-.5-18.6.4-6.2.9-11.4 3.6-14 9.7-1.1 2.6-1.6 5.3-1.6 8.1-.1 3.9 0 7.9 0 11.8 0 3.3 0 3.3-3.3 3.3h-5.6c-1.4 0-2 .5-2 1.9.1 4.3.1 8.7 0 13 0 1.5.6 2.1 2.1 2 2.1 0 4.1.1 6.2 0 1.9-.1 2.6.6 2.6 2.6-.1 7.8 0 15.5 0 23.3v12c-16.7-11.2-27.7-30.4-27.7-52.3 0-35.1 28.5-63.6 63.7-63.6s63.7 28.5 63.7 63.6z" id="Layer_1"/></svg>
