<svg xmlns="http://www.w3.org/2000/svg" viewBox="0 0 144 144" enable-background="new 0 0 144 144"><style type="text/css">.st0{fill:#FFFFFF;}</style><g id="Layer_1"><path class="st0" d="M18 76.3h56v6.3h-56zM20.1 49.3h56v6.3h-56zM26.4 62.8h56v6.3h-56zM135.2 73.3c0 36-29.2 65.2-65.2 65.2-28.1 0-52-17.7-61.2-42.6h67.4l21.4 11.6-9.6-11.7c4.5-.9 7.9-4.9 7.9-9.6v-37.3c0-5.4-4.4-9.8-9.8-9.8h-71.6c11.5-18.6 32-31 55.5-31 36 0 65.2 29.2 65.2 65.2zM18 76.3h56v6.3h-56zM20.1 49.3h56v6.3h-56zM26.4 62.8h56v6.3h-56zM20.1 49.3h56v6.3h-56zM26.4 62.8h56v6.3h-56zM18 76.3h56v6.3h-56z"/></g></svg>