<svg xmlns="http://www.w3.org/2000/svg" viewBox="0 0 127.7 127.4" enable-background="new 0 0 127.7 127.4"><style type="text/css">.st0{fill:#FFFFFF;}</style><g id="Layer_1"><path class="st0" d="M75.3 126.1c31.2-4.5 59.9-37.4 50.6-77.2-.3-1.1-2.1-2.6-3.3-2.7-4-.3-8-.1-12.8-.1v16.8c-2.7-.1-4.6-.2-7-.4v-16.6h-16.5c.2-2.6.3-4.3.4-6.6h16.4v-16.2h7v16h12c-5.3-19-29.3-37.1-50.9-38.7-29.8-2.3-54.5 11.7-65.9 37.4-9.9 22.2-5.5 51.8 10 66.7 9-12 22.6-13.3 35.1-14.7l-2.9-16h-4.2c-14.3-.2-24.2-11.1-23.2-25.3.8-10.8 8.8-20.3 20.6-23.7 14.3-4 28.9-1.7 43.3-2.3.1.7.3 1.4.4 2-5 1.5-10 3.1-15.1 4.6.4.4 1 1.1 1.6 1.7 10.8 11.7 9.9 25.6-2.3 36-1.4 1.2-2.9 2.4-4.1 3.7-4 4.4-3.9 8 .6 12 4 3.6 8.4 6.8 12.2 10.6 7.1 7.3 8 17.9 2.6 26.6-1.3 2.1-2.8 3.9-4.6 6.4zm-16.1 1.2c7.2.4 11.9-3.1 13.8-10 2.3-8.6-8.8-23.4-18.3-23.3-6.2.1-12.5 1.4-18.4 3.2-3.3 1-6.5 3.8-8.6 6.6-4.5 5.9-3.1 10.7 3.2 14.6 8.7 5.3 18.2 8.3 28.3 8.9zm6-73c-.4-8.2-2.5-15.8-8.2-21.9-3.6-3.9-8-5.8-13.5-4.5-5.7 1.4-9.1 5-10.2 10.6-1.8 9.1.6 17.3 5.8 24.7 4.4 6.2 10.6 8.2 17 6 6.4-2.3 9.3-7 9.1-14.9zM75.3 126.1c1.8-2.5 3.3-4.3 4.5-6.3 5.4-8.7 4.5-19.3-2.6-26.6-3.7-3.8-8.1-7-12.2-10.6-4.4-4-4.6-7.6-.6-12 1.2-1.4 2.7-2.5 4.1-3.7 12.1-10.3 13-24.3 2.3-36-.6-.7-1.2-1.3-1.6-1.7 5.1-1.6 10.1-3.1 15.1-4.6-.1-.7-.3-1.4-.4-2-14.4.6-29-1.7-43.3 2.3-11.6 3.3-19.7 12.8-20.5 23.6-1 14.2 8.9 25.1 23.3 25.4h4.2c1 5.4 1.9 10.5 2.9 16-12.5 1.4-26.1 2.7-35.1 14.7-15.6-15-20-44.6-10.1-66.8 11.4-25.7 36.1-39.7 65.9-37.6 21.6 1.6 45.6 19.7 50.9 38.7h-12v-16h-7v16.2h-16.4c-.1 2.3-.2 4.1-.4 6.6h16.5v16.6c2.4.1 4.3.2 7 .4v-16.8c4.8 0 8.8-.2 12.8.1 1.2.1 3 1.6 3.3 2.7 9.3 40-19.4 72.9-50.6 77.4zM59.2 127.3c-10.2-.7-19.6-3.6-28.3-8.9-6.3-3.8-7.7-8.7-3.2-14.6 2.1-2.8 5.3-5.6 8.6-6.6 5.9-1.8 12.3-3.1 18.4-3.2 9.5-.1 20.6 14.6 18.3 23.3-1.8 7-6.6 10.4-13.8 10zM65.2 54.3c.2 7.9-2.7 12.6-9.1 14.8-6.4 2.2-12.6.2-17-6-5.2-7.4-7.6-15.7-5.8-24.7 1.1-5.6 4.5-9.2 10.2-10.6 5.5-1.4 9.9.6 13.5 4.5 5.7 6.2 7.8 13.8 8.2 22z"/></g></svg>