<svg xmlns="http://www.w3.org/2000/svg" iewBox="0 0 144 144" width="144" height="144"> enable-background="new 0 0 144 144"><style type="text/css">.st0{fill:#FFFFFF;}</style><path class="st0" d="M72 7.7c-36.3 0-65.7 29.4-65.7 65.6 0 6.8 1 13.4 3 19.6.5-4.5 2.5-8.9 6-12.3 8-8 20.8-8.1 28.9-.5.2-.2.4-.5.7-.7 8.1-8.1 21.3-8.1 29.4 0 8.1 8.1 8.1 21.3 0 29.4-.2.2-.4.4-.7.6l.4.6-24.9 24.9c7.1 2.7 14.8 4.1 22.9 4.1 36.3 0 65.7-29.4 65.7-65.7 0-36.2-29.4-65.6-65.7-65.6zm1.9 37.8l-11.1-11.1c-3.1-3.1-3.1-8.1 0-11.2 3-3 7.9-3.1 11-.2.1-.1.2-.2.2-.3 3.1-3.1 8.1-3.1 11.2 0 3.1 3.1 3.1 8.1 0 11.2-.1.1-.2.2-.3.2l.2.2-11.2 11.2zm37.9 24.1l-.3.3.3.3-14.9 14.8-14.9-14.9c-4.1-4.1-4.1-10.7 0-14.8 4-4 10.5-4.1 14.6-.2l.3-.3c4.1-4.1 10.7-4.1 14.8 0 4.2 4 4.2 10.7.1 14.8z" id="Layer_1"/></svg>
