<svg xmlns="http://www.w3.org/2000/svg" viewBox="0 0 144 144" enable-background="new 0 0 144 144"><style type="text/css">.st0{fill:#FFFFFF;}</style><path class="st0" d="M100.5 99c-.6-1.2-.1-3-.1-4.3l.6-10c.2-2.5-.3-6.2 2.8-7 1.9-.5 5.1-.1 7 .2 3.4.5 3.8 2.9 3.8 5.6.1-2.3 0 5.6-.1 2.2 0 3.8-.6 7.6-1.3 11.3-.5 2.5-.9 5.1-4.2 4.6-2.1-.4-7.3-.1-8.5-2.6zm39.1-24.1c0 29.1-19 53.7-45.3 62.1.8-1.7 1.2-3.7 1.7-5.9 1.3-6.8 1.9-13.7 2.9-20.5.3-2.2.6-3.6 3.1-3.5 2.9.1 5.8 1.1 8.8 1.1 4.7 0 6.8-1.8 8.3-6.1 2.1-6.2 2.8-13.1 2.5-19.7-.1-3.7-.8-7.6-4.4-9.5-1.7-.9-3.9-1.3-5.9-1.5-2.2-.2-4.9.5-7.1-.2-4.3-1.6-1.8-9.2-2.3-12.7-.5-3.9-2.9-4.4-6.6-4.8-7.2-.6-14.6-.9-21.8-1-3.5-.1-6.9-.1-10.4-.1.6-4.2 2.8-8.2 6-11 2.1-1.8 4.4-3.5 6.2-5.6 3.3-4 2.1-8.6.4-12.6-1.6-3.7-4.9-7.2-10.2-8.9.3.2 5.4 3.7 6.5 7.4 1 3.5.4 6.2-3.7 10-2.1 2-4.4 3.4-6.4 5.5s-3.7 4.7-3.8 7.6c0 1.5.4 2.9.9 4.3.2.7.8 2 1.4 3.4-10.3.1-20.7.6-30.9 1.7-2.4.3-6.2.3-7.4 2.8-1.1 2.3-.4 5.9-.4 8.4.3-8 .5 8.7.1 2.6.7 14.7 2.4 29.4 4.4 44.1.4 2.6.7 5.3 1.2 8-11.3-11.8-18.3-27.8-18.3-45.4 0-30.2 20.5-55.6 48.4-63.1-.4 1.6-.3 3.2.6 4.8.9 1.6 2.2 2.8 3.3 4.2 1.9 2.4 2.9 5.7 2.7 8.9-.1.7-.1 1.3-.3 1.9-.5 1.4 3.2-2.8 4-4.2.9-1.6 1-2.4 1-3.4-.1-2-1.6-4-2.6-5.5s-2.3-2.6-3.4-4.1c-1-1.3-1.4-2.4-1.5-3.5 4.2-.9 8.6-1.3 13.1-1.3 36 .1 65.2 29.3 65.2 65.3z" id="Layer_1"/></svg>