<svg xmlns="http://www.w3.org/2000/svg" viewBox="0 0 127.7 127.4" enable-background="new 0 0 127.7 127.4"><style type="text/css">.st0{fill:#FFFFFF;}</style><g id="Layer_1"><path class="st0" d="M-1221 89.3c-.6-1.2-.1-3-.1-4.3l.6-10c.2-2.5-.3-6.2 2.8-7 1.9-.5 5.1-.1 7 .2 3.4.5 3.8 2.9 3.8 5.6.1-2.3 0 5.6-.1 2.2 0 3.8-.6 7.6-1.3 11.3-.5 2.5-.9 5.1-4.2 4.6-2.1-.4-7.3-.1-8.5-2.6zM-1181.9 65.2c0 29.1-19 53.7-45.3 62.1.8-1.7 1.2-3.7 1.7-5.9 1.3-6.8 1.9-13.7 2.9-20.5.3-2.2.6-3.6 3.1-3.5 2.9.1 5.8 1.1 8.8 1.1 4.7 0 6.8-1.8 8.3-6.1 2.1-6.2 2.8-13.1 2.5-19.7-.1-3.7-.8-7.6-4.4-9.5-1.7-.9-3.9-1.3-5.9-1.5-2.2-.2-4.9.5-7.1-.2-4.3-1.6-1.8-9.2-2.3-12.7-.5-3.9-2.9-4.4-6.6-4.8-7.2-.6-14.6-.9-21.8-1-3.5-.1-6.9-.1-10.4-.1.6-4.2 2.8-8.2 6-11 2.1-1.8 4.4-3.5 6.2-5.6 3.3-4 2.1-8.6.4-12.6-1.6-3.7-4.9-7.2-10.2-8.9.3.2 5.4 3.7 6.5 7.4 1 3.5.4 6.2-3.7 10-2.1 2-4.4 3.4-6.4 5.5s-3.7 4.7-3.8 7.6c0 1.5.4 2.9.9 4.3.2.7.8 2 1.4 3.4-10.3.1-20.7.6-30.9 1.7-2.4.3-6.2.3-7.4 2.8-1.1 2.3-.4 5.9-.4 8.4.3-8 .5 8.7.1 2.6.7 14.7 2.4 29.4 4.4 44.1.4 2.6.7 5.3 1.2 8-11.3-11.7-18.3-27.7-18.3-45.3 0-30.2 20.5-55.6 48.4-63.1-.4 1.6-.3 3.2.6 4.8.9 1.6 2.2 2.8 3.3 4.2 1.9 2.4 2.9 5.7 2.7 8.9-.1.6-.1 1.3-.3 1.9-.5 1.4 3.2-2.8 4-4.2.9-1.6 1-2.4 1-3.4-.1-2-1.6-4-2.6-5.5s-2.3-2.6-3.4-4.1c-1-1.3-1.4-2.4-1.5-3.5 4.2-.9 8.6-1.3 13.1-1.3 35.9 0 65.2 29.2 65.2 65.2zM-1085.5-1.6c-36 0-65.2 29.2-65.2 65.2s29.2 65.2 65.2 65.2 65.2-29.2 65.2-65.2-29.2-65.2-65.2-65.2zm-8.6 13.2h17.3v27l-3.8 42.4h-9.3l-4.2-42.4v-27zm17.3 104.2h-19.1v-20.6h20.8l-1.7 20.6zM-757.5-2c-36.3 0-65.7 29.4-65.7 65.7 0 6.8 1 13.4 3 19.6.5-4.5 2.5-8.9 6-12.3 8-8 20.8-8.1 28.9-.5.2-.2.4-.5.7-.7 8.1-8.1 21.3-8.1 29.4 0 8.1 8.1 8.1 21.3 0 29.4-.2.2-.4.4-.7.6l.5.5-24.9 24.9c7.1 2.7 14.8 4.1 22.9 4.1 36.3 0 65.7-29.4 65.7-65.7-.2-36.2-29.6-65.6-65.8-65.6zm1.9 37.9l-11.2-11.2c-3.1-3.1-3.1-8.1 0-11.2 3-3 7.9-3.1 11-.2.1-.1.2-.2.2-.3 3.1-3.1 8.1-3.1 11.2 0 3.1 3.1 3.1 8.1 0 11.2-.1.1-.2.2-.3.2l.2.2-11.1 11.3zm37.9 24l-.3.3.3.3-14.8 14.8-14.8-14.8c-4.1-4.1-4.1-10.7 0-14.8 4-4 10.5-4.1 14.6-.2l.3-.3c4.1-4.1 10.7-4.1 14.8 0 4 4 4 10.6-.1 14.7zM-921.5-2c-36.3 0-65.7 29.4-65.7 65.7 0 36.3 29.4 65.7 65.7 65.7 36.3 0 65.7-29.4 65.7-65.7-.1-36.3-29.5-65.7-65.7-65.7zm24.9 69.4h-21v20.4h-8v-20.4h-20.9v-7.5h20.9v-20.3h8v20.4h21v7.4zM-429.5-1.9c-36.3 0-65.7 29.4-65.7 65.7 0 16.1 5.8 30.9 15.5 42.3v-20.2c12.6-7.3 28.3-7.1 40.9.5v42.3c2.4.3 4.8.6 7.3.6v-29.2c9-5.2 20.1-5.1 29 .3v23.1c22.8-10.3 38.7-33.2 38.7-59.9-.1-36.2-29.5-65.5-65.7-65.5zm-29.8 77.4c-10 0-18.1-8.1-18.1-18.1 0-10 8.1-18.1 18.1-18.1 10 0 18.1 8.1 18.1 18.1 0 9.9-8.1 18.1-18.1 18.1zm42.3 17.2c-7.1 0-12.9-5.8-12.9-12.9 0-7.1 5.8-12.9 12.9-12.9s12.9 5.8 12.9 12.9c-.1 7.2-5.8 12.9-12.9 12.9zm16.7-57.8v19.8h-7.7v-19.8h-20.3v-7.2h20.3v-19.8h7.7v19.8h20.3v7.2h-20.3zM-647.5 66.7h56v6.3h-56zM-645.4 39.6h56v6.3h-56zM-639.1 53.2h56v6.3h-56zM-530.3 63.7c0 36-29.2 65.2-65.2 65.2-28.1 0-52-17.7-61.2-42.6h67.4l21.4 11.6-9.7-11.8c4.5-.9 7.9-4.9 7.9-9.6v-37.3c0-5.4-4.4-9.8-9.8-9.8h-71.6c11.5-18.6 32.1-31 55.5-31 36.1 0 65.3 29.3 65.3 65.3zM-647.5 66.7h56v6.3h-56zM-645.4 39.6h56v6.3h-56zM-639.1 53.2h56v6.3h-56zM-645.4 39.6h56v6.3h-56zM-639.1 53.2h56v6.3h-56zM-647.5 66.7h56v6.3h-56zM-201.8 63.7c0 35.2-28.5 63.7-63.7 63.7-5.5 0-10.8-.7-15.9-2v-43.4c0-3.7 0-3.7 3.8-3.7h8.9c1 0 1.8-.1 1.9-1.4l1.2-13.3c.2-1.6-.5-2.2-2.1-2.2-3.9.1-7.8 0-11.7 0-1.4 0-2.1-.4-2.1-1.9 0-3-.1-6.1.1-9.1.2-4 1.5-5.1 5.5-5.2h8.3c1.4 0 2-.5 2-1.9v-13.6c0-1.2-.5-1.8-1.7-1.8-6.2.2-12.4-.5-18.6.4-6.2.9-11.4 3.6-14 9.7-1.1 2.6-1.6 5.3-1.6 8.1-.1 3.9 0 7.9 0 11.8 0 3.3 0 3.3-3.3 3.3h-5.6c-1.4 0-2 .5-2 1.9.1 4.3.1 8.7 0 13 0 1.5.6 2.1 2.1 2 2.1 0 4.1.1 6.2 0 1.9-.1 2.6.6 2.6 2.6-.1 7.8 0 15.5 0 23.3v12c-16.7-11.5-27.7-30.7-27.7-52.5 0-35.2 28.5-63.7 63.7-63.7 35.1.2 63.7 28.7 63.7 63.9zM-37.8 63.7c0 35.2-28.5 63.7-63.7 63.7-10.7 0-20.8-2.7-29.6-7.3.9.2 1.9.3 2.8.4.6.1 1.2.2 1.7.3h9.9c2.6-.4 5.1-.7 7.7-1.2 24.3-4.9 42.9-23.7 48-48.5.9-4.5 1.3-9.1 1.3-13.7 0-.7.1-1.3.6-1.7 4-2.9 7-6.6 10.1-10.3v-.4c-3.7 1.3-7.4 2.7-11.8 3.1 4-3.3 7.2-6.5 8.6-11.3-1.1-.1-1.6.4-2.3.8-3.1 1.5-6.3 2.7-9.6 3.5-.8.2-1.6.4-2.3-.3-3.5-3.3-7.7-5.2-12.3-6.1h-6l-2.2.6c-10.8 2.6-17.7 12.7-16.5 23.7.2 1.9-.1 2.4-2.1 2.1-16.2-1.7-29.9-8.6-40.9-20.8-1.5-1.6-1.8-1.6-2.7.4-3.5 8-1.8 17.6 4.4 23.8.9.9 1.7 1.8 2.6 2.8-2.4-.1-4.6-.6-6.7-1.5-2.1-.9-2.5-.6-2.1 1.7 1.3 9 6.3 14.9 14.7 18.1.5.2 1.1.2 1.5.8-2.1.7-4.3.4-6.3.4-2.3 0-2.4.2-1.5 2.2 3.3 6.8 8.7 10.9 16.1 12.4.8.2 1.6.3 2.5.7-4.2 3.5-8.9 5.7-14.1 7.2-2.1.6-4.2 1-6.3 1.3-12.8-11.7-20.9-28.5-20.9-47.2 0-35.2 28.5-63.7 63.7-63.7 35.1.3 63.7 28.8 63.7 64zM75.3 126.1c31.1-4.5 59.7-37.4 50.5-77.2-.3-1.1-2.1-2.6-3.3-2.7-4-.3-8-.1-12.8-.1v16.8c-2.7-.1-4.6-.2-7-.4v-16.6h-16.5c.2-2.6.3-4.3.4-6.6h16.3v-16.2h7v16h12c-5.3-19-29.2-37.1-50.8-38.7-29.7-2.3-54.2 11.7-65.7 37.4-9.9 22.2-5.5 51.8 10 66.7 9-12 22.6-13.3 35-14.7l-2.9-16h-4.1c-14.3-.3-24.2-11.2-23.2-25.4.8-10.7 8.8-20.2 20.6-23.6 14.2-4 28.8-1.7 43.2-2.3.1.7.3 1.4.4 2-5 1.5-10 3.1-15.1 4.6.4.4 1 1.1 1.6 1.7 10.7 11.7 9.8 25.6-2.3 36-1.4 1.2-2.9 2.4-4.1 3.7-4 4.4-3.8 8 .6 12 4 3.6 8.4 6.8 12.1 10.6 7.1 7.3 8 17.9 2.6 26.6-1.2 2.1-2.7 3.9-4.5 6.4zm-16.1 1.2c7.2.4 11.9-3.1 13.8-10 2.3-8.6-8.8-23.4-18.3-23.3-6.2.1-12.5 1.4-18.4 3.2-3.3 1-6.5 3.8-8.6 6.6-4.5 5.9-3.1 10.7 3.2 14.6 8.8 5.3 18.2 8.3 28.3 8.9zm6-73c-.4-8.2-2.5-15.8-8.2-21.9-3.6-3.9-8-5.8-13.5-4.5-5.6 1.4-9 5-10.1 10.6-1.8 9.1.6 17.3 5.8 24.7 4.3 6.2 10.6 8.2 16.9 6 6.4-2.3 9.3-7 9.1-14.9zM75.3 126.1c1.8-2.5 3.3-4.3 4.5-6.3 5.4-8.7 4.5-19.3-2.6-26.6-3.7-3.8-8.1-7-12.1-10.6-4.4-4-4.6-7.6-.6-12 1.2-1.4 2.7-2.5 4.1-3.7 12.1-10.3 13-24.3 2.3-36-.6-.7-1.2-1.3-1.6-1.7 5.1-1.6 10.1-3.1 15.1-4.6-.1-.7-.3-1.4-.4-2-14.4.6-28.9-1.7-43.2 2.3-11.8 3.3-19.8 12.8-20.6 23.6-1.1 14.2 8.9 25.1 23.2 25.4h4.1c1 5.4 1.9 10.5 2.9 16-12.5 1.4-26 2.7-35 14.7-15.5-15-19.8-44.6-10-66.8 11.4-25.7 36-39.8 65.7-37.6 21.6 1.6 45.5 19.7 50.8 38.7h-12v-16h-7v16.2h-16.3c-.1 2.3-.2 4.1-.4 6.6h16.5v16.6c2.4.1 4.3.2 7 .4v-16.8c4.7 0 8.8-.2 12.8.1 1.2.1 3 1.6 3.3 2.7 9.2 40-19.4 72.9-50.5 77.4zM59.2 127.3c-10.1-.7-19.5-3.6-28.2-8.9-6.3-3.8-7.7-8.7-3.2-14.6 2.1-2.8 5.3-5.6 8.6-6.6 5.9-1.8 12.2-3.1 18.4-3.2 9.5-.1 20.6 14.6 18.3 23.3-2 7-6.7 10.4-13.9 10zM65.2 54.3c.2 7.9-2.7 12.6-9.1 14.8-6.4 2.2-12.6.2-16.9-6-5.2-7.4-7.5-15.7-5.8-24.7 1.1-5.6 4.5-9.2 10.1-10.6 5.5-1.4 9.9.6 13.5 4.5 5.7 6.2 7.8 13.8 8.2 22z"/></g></svg>