<?xml version="1.0" encoding="utf-8"?>
<!-- Generator: Adobe Illustrator 19.1.0, SVG Export Plug-In . SVG Version: 6.00 Build 0)  -->
<svg version="1.1" xmlns="http://www.w3.org/2000/svg" xmlns:xlink="http://www.w3.org/1999/xlink" x="0px" y="0px"
	 viewBox="0 0 144 144" style="enable-background:new 0 0 144 144;" xml:space="preserve">
<style type="text/css">
	.st0{fill:#FFFFFF;}
</style>
<g id="Layer_1">
	<g>
		<rect x="18" y="76.3" class="st0" width="56" height="6.3"/>
		<rect x="20.1" y="49.3" class="st0" width="56" height="6.3"/>
		<rect x="26.4" y="62.8" class="st0" width="56" height="6.3"/>
		<path class="st0" d="M135.2,73.3c0,36-29.2,65.2-65.2,65.2c-28.1,0-52-17.7-61.2-42.6c0.1,0,0.3,0,0.4,0h67l21.4,11.6L88,95.8
			c4.5-0.9,7.9-4.9,7.9-9.6V48.9c0-5.4-4.4-9.8-9.8-9.8H14.5C26,20.5,46.5,8.1,70,8.1C106,8.1,135.2,37.3,135.2,73.3z"/>
		<rect x="18" y="76.3" class="st0" width="56" height="6.3"/>
		<rect x="20.1" y="49.3" class="st0" width="56" height="6.3"/>
		<rect x="26.4" y="62.8" class="st0" width="56" height="6.3"/>
		<rect x="20.1" y="49.3" class="st0" width="56" height="6.3"/>
		<rect x="26.4" y="62.8" class="st0" width="56" height="6.3"/>
		<rect x="18" y="76.3" class="st0" width="56" height="6.3"/>
	</g>
</g>
<g id="Layer_2">
</g>
</svg>
