<?xml version="1.0" encoding="utf-8"?>
<!-- Generator: Adobe Illustrator 19.1.0, SVG Export Plug-In . SVG Version: 6.00 Build 0)  -->
<svg version="1.1" xmlns="http://www.w3.org/2000/svg" xmlns:xlink="http://www.w3.org/1999/xlink" x="0px" y="0px"
	 viewBox="0 0 144 144" style="enable-background:new 0 0 144 144;" xml:space="preserve">
<style type="text/css">
	.st0{fill:#FFFFFF;}
</style>
<g id="Layer_1">
	<g>
		<path class="st0" d="M100.5,99c-0.6-1.2-0.1-3-0.1-4.3c0.2-3.3,0.4-6.7,0.6-10c0.2-2.5-0.3-6.2,2.8-7c1.9-0.5,5.1-0.1,7,0.2
			c3.4,0.5,3.8,2.9,3.8,5.6c0.1-2.3,0,5.6-0.1,2.2c0,3.8-0.6,7.6-1.3,11.3c-0.5,2.5-0.9,5.1-4.2,4.6
			C106.9,101.2,101.7,101.5,100.5,99z"/>
		<path class="st0" d="M139.6,74.9c0,29.1-19,53.7-45.3,62.1c0.8-1.7,1.2-3.7,1.7-5.9c1.3-6.8,1.9-13.7,2.9-20.5
			c0.3-2.2,0.6-3.6,3.1-3.5c2.9,0.1,5.8,1.1,8.8,1.1c4.7,0,6.8-1.8,8.3-6.1c2.1-6.2,2.8-13.1,2.5-19.7c-0.1-3.7-0.8-7.6-4.4-9.5
			c-1.7-0.9-3.9-1.3-5.9-1.5c-2.2-0.2-4.9,0.5-7.1-0.2c-4.3-1.6-1.8-9.2-2.3-12.7c-0.5-3.9-2.9-4.4-6.6-4.8
			c-7.2-0.6-14.6-0.9-21.8-1c-3.5-0.1-6.9-0.1-10.4-0.1c0.6-4.2,2.8-8.2,6-11c2.1-1.8,4.4-3.5,6.2-5.6c3.3-4,2.1-8.6,0.4-12.6
			c-1.6-3.7-4.9-7.2-10.2-8.9c0.3,0.2,5.4,3.7,6.5,7.4c1,3.5,0.4,6.2-3.7,10c-2.1,2-4.4,3.4-6.4,5.5c-2,2.1-3.7,4.7-3.8,7.6
			c0,1.5,0.4,2.9,0.9,4.3c0.2,0.7,0.8,2,1.4,3.4c-10.3,0.1-20.7,0.6-30.9,1.7c-2.4,0.3-6.2,0.3-7.4,2.8c-1.1,2.3-0.4,5.9-0.4,8.4
			c0.3-8,0.5,8.7,0.1,2.6c0.7,14.7,2.4,29.4,4.4,44.1c0.4,2.6,0.7,5.3,1.2,8C16.1,108.5,9.1,92.5,9.1,74.9
			c0-30.2,20.5-55.6,48.4-63.1c-0.4,1.6-0.3,3.2,0.6,4.8c0.9,1.6,2.2,2.8,3.3,4.2c1.9,2.4,2.9,5.7,2.7,8.9C64,30.4,64,31,63.8,31.6
			c-0.5,1.4,3.2-2.8,4-4.2c0.9-1.6,1-2.4,1-3.4c-0.1-2-1.6-4-2.6-5.5c-1-1.5-2.3-2.6-3.4-4.1c-1-1.3-1.4-2.4-1.5-3.5
			c4.2-0.9,8.6-1.3,13.1-1.3C110.4,9.7,139.6,38.9,139.6,74.9z"/>
	</g>
</g>
<g id="Layer_2">
</g>
</svg>
