<?xml version="1.0" encoding="utf-8"?>
<!-- Generator: Adobe Illustrator 19.1.0, SVG Export Plug-In . SVG Version: 6.00 Build 0)  -->
<svg version="1.1" xmlns="http://www.w3.org/2000/svg" xmlns:xlink="http://www.w3.org/1999/xlink" x="0px" y="0px"
	 viewBox="0 0 127.7 127.4" style="enable-background:new 0 0 127.7 127.4;" xml:space="preserve">
<style type="text/css">
	.st0{fill:#FFFFFF;}
</style>
<g id="Layer_1">
	<g>
		<g>
			<g>
				<path class="st0" d="M75.3,126.1c31.2-4.5,59.9-37.4,50.6-77.2c-0.3-1.1-2.1-2.6-3.3-2.7c-4-0.3-8-0.1-12.8-0.1
					c0,5.9,0,11.2,0,16.8c-2.7-0.1-4.6-0.2-7-0.4c0-5.7,0-10.8,0-16.6c-5.8,0-11,0-16.5,0c0.2-2.6,0.3-4.3,0.4-6.6
					c5.5,0,10.6,0,16.4,0c0-5.8,0-11,0-16.2c2.6,0,4.6,0,7,0c0,5.6,0,10.7,0,16c4.3,0,8.2,0,12,0c-5.3-19-29.3-37.1-50.9-38.7
					C41.4-1.9,16.7,12.1,5.3,37.8c-9.9,22.2-5.5,51.8,10,66.7c9-12,22.6-13.3,35.1-14.7c-1-5.5-1.9-10.5-2.9-16c-0.9,0-2.5,0-4.2,0
					C29,73.6,19.1,62.7,20.1,48.5c0.8-10.8,8.8-20.3,20.6-23.7C55,20.8,69.6,23.1,84,22.5c0.1,0.7,0.3,1.4,0.4,2
					c-5,1.5-10,3.1-15.1,4.6c0.4,0.4,1,1.1,1.6,1.7c10.8,11.7,9.9,25.6-2.3,36c-1.4,1.2-2.9,2.4-4.1,3.7c-4,4.4-3.9,8,0.6,12
					c4,3.6,8.4,6.8,12.2,10.6c7.1,7.3,8,17.9,2.6,26.6C78.6,121.8,77.1,123.6,75.3,126.1z M59.2,127.3c7.2,0.4,11.9-3.1,13.8-10
					c2.3-8.6-8.8-23.4-18.3-23.3c-6.2,0.1-12.5,1.4-18.4,3.2c-3.3,1-6.5,3.8-8.6,6.6c-4.5,5.9-3.1,10.7,3.2,14.6
					C39.6,123.7,49.1,126.7,59.2,127.3z M65.2,54.3c-0.4-8.2-2.5-15.8-8.2-21.9c-3.6-3.9-8-5.8-13.5-4.5c-5.7,1.4-9.1,5-10.2,10.6
					c-1.8,9.1,0.6,17.3,5.8,24.7c4.4,6.2,10.6,8.2,17,6C62.5,66.9,65.4,62.2,65.2,54.3z"/>
				<path class="st0" d="M75.3,126.1c1.8-2.5,3.3-4.3,4.5-6.3c5.4-8.7,4.5-19.3-2.6-26.6c-3.7-3.8-8.1-7-12.2-10.6
					c-4.4-4-4.6-7.6-0.6-12c1.2-1.4,2.7-2.5,4.1-3.7c12.1-10.3,13-24.3,2.3-36c-0.6-0.7-1.2-1.3-1.6-1.7c5.1-1.6,10.1-3.1,15.1-4.6
					c-0.1-0.7-0.3-1.4-0.4-2c-14.4,0.6-29-1.7-43.3,2.3C29,28.2,20.9,37.7,20.1,48.5C19.1,62.7,29,73.6,43.4,73.9c1.7,0,3.3,0,4.2,0
					c1,5.4,1.9,10.5,2.9,16c-12.5,1.4-26.1,2.7-35.1,14.7C-0.2,89.6-4.6,60,5.3,37.8C16.7,12.1,41.4-1.9,71.2,0.2
					c21.6,1.6,45.6,19.7,50.9,38.7c-3.9,0-7.7,0-12,0c0-5.3,0-10.4,0-16c-2.4,0-4.4,0-7,0c0,5.2,0,10.4,0,16.2c-5.8,0-10.9,0-16.4,0
					c-0.1,2.3-0.2,4.1-0.4,6.6c5.5,0,10.8,0,16.5,0c0,5.9,0,11,0,16.6c2.4,0.1,4.3,0.2,7,0.4c0-5.6,0-10.9,0-16.8
					c4.8,0,8.8-0.2,12.8,0.1c1.2,0.1,3,1.6,3.3,2.7C135.2,88.7,106.5,121.6,75.3,126.1z"/>
				<path class="st0" d="M59.2,127.3c-10.2-0.7-19.6-3.6-28.3-8.9c-6.3-3.8-7.7-8.7-3.2-14.6c2.1-2.8,5.3-5.6,8.6-6.6
					c5.9-1.8,12.3-3.1,18.4-3.2c9.5-0.1,20.6,14.6,18.3,23.3C71.2,124.3,66.4,127.7,59.2,127.3z"/>
				<path class="st0" d="M65.2,54.3c0.2,7.9-2.7,12.6-9.1,14.8c-6.4,2.2-12.6,0.2-17-6c-5.2-7.4-7.6-15.7-5.8-24.7
					c1.1-5.6,4.5-9.2,10.2-10.6c5.5-1.4,9.9,0.6,13.5,4.5C62.7,38.5,64.8,46.1,65.2,54.3z"/>
			</g>
		</g>
	</g>
</g>
<g id="Layer_2">
</g>
</svg>
