<?xml version="1.0" encoding="utf-8"?>
<!-- Generator: Adobe Illustrator 19.1.0, SVG Export Plug-In . SVG Version: 6.00 Build 0)  -->
<svg version="1.1" xmlns="http://www.w3.org/2000/svg" xmlns:xlink="http://www.w3.org/1999/xlink" x="0px" y="0px"
	 viewBox="0 0 144 144" style="enable-background:new 0 0 144 144;" xml:space="preserve">
<style type="text/css">
	.st0{fill:#FFFFFF;}
</style>
<g id="Layer_1">
	<path class="st0" d="M72,7.7C35.7,7.7,6.3,37.1,6.3,73.3c0,6.8,1,13.4,3,19.6c0.5-4.5,2.5-8.9,6-12.3c8-8,20.8-8.1,28.9-0.5
		c0.2-0.2,0.4-0.5,0.7-0.7c8.1-8.1,21.3-8.1,29.4,0c8.1,8.1,8.1,21.3,0,29.4c-0.2,0.2-0.4,0.4-0.7,0.6L74,110l-24.9,24.9
		c7.1,2.7,14.8,4.1,22.9,4.1c36.3,0,65.7-29.4,65.7-65.7C137.7,37.1,108.3,7.7,72,7.7z M73.9,45.5L62.8,34.4
		c-3.1-3.1-3.1-8.1,0-11.2c3-3,7.9-3.1,11-0.2c0.1-0.1,0.2-0.2,0.2-0.3c3.1-3.1,8.1-3.1,11.2,0c3.1,3.1,3.1,8.1,0,11.2
		c-0.1,0.1-0.2,0.2-0.3,0.2l0.2,0.2L73.9,45.5z M111.8,69.6c-0.1,0.1-0.2,0.2-0.3,0.3l0.3,0.3L96.9,85L82,70.1
		c-4.1-4.1-4.1-10.7,0-14.8c4-4,10.5-4.1,14.6-0.2c0.1-0.1,0.2-0.2,0.3-0.3c4.1-4.1,10.7-4.1,14.8,0
		C115.9,58.8,115.9,65.5,111.8,69.6z"/>
</g>
<g id="Layer_2">
</g>
</svg>
