<?xml version="1.0" encoding="utf-8"?>
<!-- Generator: Adobe Illustrator 19.1.0, SVG Export Plug-In . SVG Version: 6.00 Build 0)  -->
<svg version="1.1" xmlns="http://www.w3.org/2000/svg" xmlns:xlink="http://www.w3.org/1999/xlink" x="0px" y="0px"
	 viewBox="0 0 144 144" style="enable-background:new 0 0 144 144;" xml:space="preserve">
<style type="text/css">
	.st0{fill:#FFFFFF;}
</style>
<g id="Layer_1">
	<path class="st0" d="M135.7,73.3c0,35.2-28.5,63.7-63.7,63.7c-5.5,0-10.8-0.7-15.9-2c0-0.3,0-0.6,0-0.9c0-14.2,0-28.4,0-42.5
		c0-3.7,0-3.7,3.8-3.7c3,0,6,0,8.9,0c1,0,1.8-0.1,1.9-1.4c0.4-4.4,0.8-8.9,1.2-13.3c0.2-1.6-0.5-2.2-2.1-2.2c-3.9,0.1-7.8,0-11.7,0
		c-1.4,0-2.1-0.4-2.1-1.9c0-3-0.1-6.1,0.1-9.1c0.2-4,1.5-5.1,5.5-5.2c2.8,0,5.6,0,8.3,0c1.4,0,2-0.5,2-1.9c0-4.5,0-9.1,0-13.6
		c0-1.2-0.5-1.8-1.7-1.8c-6.2,0.2-12.4-0.5-18.6,0.4c-6.2,0.9-11.4,3.6-14,9.7c-1.1,2.6-1.6,5.3-1.6,8.1c-0.1,3.9,0,7.9,0,11.8
		c0,3.3,0,3.3-3.3,3.3c-1.9,0-3.8,0-5.6,0c-1.4,0-2,0.5-2,1.9c0.1,4.3,0.1,8.7,0,13c0,1.5,0.6,2.1,2.1,2c2.1,0,4.1,0.1,6.2,0
		c1.9-0.1,2.6,0.6,2.6,2.6c-0.1,7.8,0,15.5,0,23.3c0,4,0,8,0,12C19.3,114.4,8.3,95.2,8.3,73.3C8.3,38.2,36.8,9.7,72,9.7
		C107.2,9.7,135.7,38.2,135.7,73.3z"/>
</g>
<g id="Layer_2">
</g>
</svg>
