<svg xmlns="http://www.w3.org/2000/svg" viewBox="0 0 144 144" enable-background="new 0 0 144 144"><style type="text/css">.st0{fill:#FFFFFF;}</style><path class="st0" d="M135.7 73.3c0 35.2-28.5 63.7-63.7 63.7-10.7 0-20.8-2.7-29.6-7.3.9.2 1.9.3 2.8.4.6.1 1.2.2 1.7.3h9.9c2.6-.4 5.1-.7 7.7-1.2 24.3-4.9 42.9-23.7 48-48.5.9-4.5 1.3-9.1 1.3-13.7 0-.7.1-1.3.6-1.7 4-2.9 7-6.6 10.1-10.3v-.4c-3.7 1.3-7.4 2.7-11.8 3.1 4-3.3 7.2-6.5 8.6-11.3-1.1-.1-1.6.4-2.3.8-3.1 1.5-6.3 2.7-9.6 3.5-.8.2-1.6.4-2.3-.3-3.5-3.3-7.7-5.2-12.3-6.1h-6l-2.2.6c-10.7 2.7-17.7 12.8-16.4 23.7.2 1.9-.1 2.4-2.1 2.1-16.3-1.7-30-8.5-41-20.7-1.5-1.6-1.8-1.6-2.7.4-3.5 8-1.8 17.6 4.4 23.8.9.9 1.7 1.8 2.6 2.8-2.4-.1-4.6-.6-6.7-1.5-2.1-.9-2.5-.6-2.1 1.7 1.3 9 6.3 14.9 14.7 18.1.5.2 1.1.2 1.5.8-2.1.7-4.3.4-6.3.4-2.3 0-2.4.2-1.5 2.2 3.3 6.8 8.7 10.9 16.1 12.4.8.2 1.6.3 2.5.7-4.2 3.5-8.9 5.7-14.1 7.2-2.1.6-4.2 1-6.3 1.3-12.9-11.5-20.9-28.3-20.9-47 0-35.1 28.5-63.6 63.7-63.6s63.7 28.5 63.7 63.6z" id="Layer_1"/></svg>