<?xml version="1.0" encoding="utf-8"?>
<!-- Generator: Adobe Illustrator 19.1.0, SVG Export Plug-In . SVG Version: 6.00 Build 0)  -->
<svg version="1.1" xmlns="http://www.w3.org/2000/svg" xmlns:xlink="http://www.w3.org/1999/xlink" x="0px" y="0px"
	 viewBox="0 0 144 144" style="enable-background:new 0 0 144 144;" xml:space="preserve">
<style type="text/css">
	.st0{fill:#FFFFFF;}
</style>
<g id="Layer_1">
	<path class="st0" d="M135.7,73.3c0,35.2-28.5,63.7-63.7,63.7c-10.7,0-20.8-2.7-29.6-7.3c0.9,0.2,1.9,0.3,2.8,0.4
		c0.6,0.1,1.2,0.2,1.7,0.3h9.9c2.6-0.4,5.1-0.7,7.7-1.2c24.3-4.9,42.9-23.7,48-48.5c0.9-4.5,1.3-9.1,1.3-13.7c0-0.7,0.1-1.3,0.6-1.7
		c4-2.9,7-6.6,10.1-10.3v-0.4c-3.7,1.3-7.4,2.7-11.8,3.1c4-3.3,7.2-6.5,8.6-11.3c-1.1-0.1-1.6,0.4-2.3,0.8c-3.1,1.5-6.3,2.7-9.6,3.5
		c-0.8,0.2-1.6,0.4-2.3-0.3c-3.5-3.3-7.7-5.2-12.3-6.1h-6c-0.7,0.2-1.5,0.4-2.2,0.6c-10.7,2.7-17.7,12.8-16.4,23.7
		c0.2,1.9-0.1,2.4-2.1,2.1C51.8,69,38.1,62.2,27.1,50c-1.5-1.6-1.8-1.6-2.7,0.4c-3.5,8-1.8,17.6,4.4,23.8c0.9,0.9,1.7,1.8,2.6,2.8
		c-2.4-0.1-4.6-0.6-6.7-1.5c-2.1-0.9-2.5-0.6-2.1,1.7c1.3,9,6.3,14.9,14.7,18.1c0.5,0.2,1.1,0.2,1.5,0.8c-2.1,0.7-4.3,0.4-6.3,0.4
		c-2.3,0-2.4,0.2-1.5,2.2c3.3,6.8,8.7,10.9,16.1,12.4c0.8,0.2,1.6,0.3,2.5,0.7c-4.2,3.5-8.9,5.7-14.1,7.2c-2.1,0.6-4.2,1-6.3,1.3
		C16.3,108.8,8.3,92,8.3,73.3C8.3,38.2,36.8,9.7,72,9.7S135.7,38.2,135.7,73.3z"/>
</g>
<g id="Layer_2">
</g>
</svg>
