<svg xmlns="http://www.w3.org/2000/svg" viewBox="0 0 144 144" enable-background="new 0 0 144 144"><style type="text/css">.st0{fill:#FFFFFF;}</style><path class="st0" d="M18 76.3h56v6.3h-56zm2.1-27h56v6.3h-56zm6.3 13.5h56v6.3h-56zm108.8 10.5c0 36-29.2 65.2-65.2 65.2-28.1 0-52-17.7-61.2-42.6h67.4l21.4 11.6-9.6-11.7c4.5-.9 7.9-4.9 7.9-9.6v-37.3c0-5.4-4.4-9.8-9.8-9.8h-71.6c11.5-18.6 32-31 55.5-31 36 0 65.2 29.2 65.2 65.2zm-117.2 3h56v6.3h-56zm2.1-27h56v6.3h-56zm6.3 13.5h56v6.3h-56zm-6.3-13.5h56v6.3h-56zm6.3 13.5h56v6.3h-56zm-8.4 13.5h56v6.3h-56z" id="Layer_1"/></svg>