<?xml version="1.0" encoding="utf-8"?>
<!-- Generator: Adobe Illustrator 19.1.0, SVG Export Plug-In . SVG Version: 6.00 Build 0)  -->
<!DOCTYPE svg PUBLIC "-//W3C//DTD SVG 1.1//EN" "http://www.w3.org/Graphics/SVG/1.1/DTD/svg11.dtd">
<svg version="1.1" id="Layer_1" xmlns="http://www.w3.org/2000/svg" xmlns:xlink="http://www.w3.org/1999/xlink" x="0px" y="0px"
	 width="45px" height="51.3px" viewBox="0 0 45 51.3" enable-background="new 0 0 45 51.3" xml:space="preserve">
<g>
	<path fill="#6D6E71" d="M12.6,21.5c3.7-3.1,7.4-4,10.7-3.5c-0.7,0.8-1.4,1.5-2,2.3c-0.1,0.1-0.1,0.1-0.2,0.2
		C18.7,20.1,15.8,20.3,12.6,21.5z"/>
	<g>
		<path fill="#6D6E71" d="M14.4,40.5L14.4,40.5L14.4,40.5C14.4,40.5,14.4,40.5,14.4,40.5z"/>
		<path fill="#6D6E71" d="M14.4,40.5L14.4,40.5L14.4,40.5C14.4,40.5,14.4,40.5,14.4,40.5z"/>
		<path fill="#6D6E71" d="M24.2,44.4C4.7,51.9-1.1,31.3,6.4,23.1c0.2-0.2,0.3-0.3,0.5-0.5C8.6,21,10.8,20,13.6,20c0,0,0.1,0,0.1,0
			c-2.2,0.7-3.9,1.9-5.2,3.4c-0.2,0.2-0.3,0.4-0.5,0.6C8,24,7.8,24.2,7.7,24.3c-0.2,0.2-0.3,0.5-0.4,0.7C4,30.7,6.4,38.8,13.6,40.3
			c0.3,0.1,1.4,0.2,1.7,0.2c1.4,0.1,2.9,0,4.6-0.4c9.1-2.1,11.4-9,9-14c0.8-1,1.7-2.1,2.4-3.2C36.2,29.3,35.9,39.9,24.2,44.4z"/>
	</g>
	<g>
		<path fill="#A7A9AC" d="M33.9,9.4l3.2,2.9C31.6,22.5,23.3,31.5,15,39.1c-1.5-5-3.7-9.6-5.9-14.3c2.6,1.2,4.9,3.1,6.8,5.1
			C20.9,22.8,26.9,15.2,33.9,9.4z"/>
	</g>
	<circle fill="#414042" cx="28" cy="18.8" r="0.9"/>
	<circle fill="#414042" cx="30.9" cy="16" r="0.9"/>
	<path fill="#58595B" d="M41.2,3.9c0,0-2.1,5.2-3.5,7.6l-3.2-2.9C36.7,6.9,38.9,5.3,41.2,3.9z"/>
</g>
</svg>
