<?xml version="1.0" encoding="utf-8"?>
<!-- Generator: Adobe Illustrator 19.1.0, SVG Export Plug-In . SVG Version: 6.00 Build 0)  -->
<!DOCTYPE svg PUBLIC "-//W3C//DTD SVG 1.1//EN" "http://www.w3.org/Graphics/SVG/1.1/DTD/svg11.dtd">
<svg version="1.1" id="Layer_1" xmlns="http://www.w3.org/2000/svg" xmlns:xlink="http://www.w3.org/1999/xlink" x="0px" y="0px"
	 width="87.2px" height="79px" viewBox="0 0 87.2 79" enable-background="new 0 0 87.2 79" xml:space="preserve">
<g>
	<g>
		<g>
			<path d="M8.1,23.3c23.6-0.8,47.1-1.6,70.7-2.4c2.6-0.1,2.6-4.1,0-4c-23.6,0.8-47.1,1.6-70.7,2.4C5.6,19.4,5.5,23.3,8.1,23.3
				L8.1,23.3z"/>
		</g>
	</g>
	<g>
		<g>
			<path d="M7.9,39.6c23.7,1.5,47.4,2.2,71.2,2.1c2.6,0,2.6-4,0-4c-23.8,0.1-47.5-0.6-71.2-2.1C5.3,35.4,5.3,39.4,7.9,39.6L7.9,39.6
				z"/>
		</g>
	</g>
	<g>
		<g>
			<path d="M9.9,61.9C32.2,60,54.6,59.7,77,61c2.6,0.1,2.6-3.8,0-4C54.6,55.7,32.2,56,9.9,58C7.4,58.2,7.4,62.2,9.9,61.9L9.9,61.9z"
				/>
		</g>
	</g>
</g>
</svg>
