<svg xmlns="http://www.w3.org/2000/svg" width="49.5" height="49.5" viewBox="0 0 49.5 49.5"><path fill="#58595B" d="M26.3 23.8c-1.3 0-2 1-2 3.2s.7 3.2 2 3.2 2-1 2-3.2-.7-3.2-2-3.2zm0 0c-1.3 0-2 1-2 3.2s.7 3.2 2 3.2 2-1 2-3.2-.7-3.2-2-3.2zm4.5-23h-12c-9.9 0-18 8.1-18 18v12c0 9.9 8.1 18 18 18h12c9.9 0 18-8.1 18-18v-12c0-9.9-8.1-18-18-18zm-19.1 30.8h-2.2v-9.2h2.2v9.2zm-1.1-11.2c-.8 0-1.4-.6-1.4-1.3 0-.8.6-1.4 1.4-1.4.8 0 1.4.6 1.4 1.4 0 .7-.5 1.3-1.4 1.3zm7.7 9.6c.7 0 1.2-.2 1.8-.7l1 1.5c-.8.7-1.8 1.1-3 1.1-2.7 0-4.3-1.8-4.3-4.8s1.6-4.9 4.3-4.9c1.2 0 2.1.3 3 1.1l-1 1.4c-.6-.5-1.2-.7-1.8-.7-1.3 0-2.1.9-2.1 3.2 0 2 .8 2.8 2.1 2.8zm8 1.8c-2.7 0-4.3-1.8-4.3-4.9 0-2.9 1.6-4.9 4.3-4.9 2.7 0 4.3 1.8 4.3 4.9.1 3-1.6 4.9-4.3 4.9zm14-.2h-2.2v-6.3c0-1.1-.4-1.5-1.1-1.5-.8 0-1.4.5-1.9 1.4v6.4h-2.2v-9.2h1.9l.2 1.2c.7-.9 1.6-1.5 2.8-1.5 1.7 0 2.6 1.1 2.6 2.8v6.7zm-14-7.8c-1.3 0-2 1-2 3.2s.7 3.2 2 3.2 2-1 2-3.2-.7-3.2-2-3.2z"/></svg>