<?xml version="1.0" encoding="utf-8"?>
<!-- Generator: Adobe Illustrator 19.1.0, SVG Export Plug-In . SVG Version: 6.00 Build 0)  -->
<!DOCTYPE svg PUBLIC "-//W3C//DTD SVG 1.1//EN" "http://www.w3.org/Graphics/SVG/1.1/DTD/svg11.dtd">
<svg version="1.1" id="Layer_1" xmlns="http://www.w3.org/2000/svg" xmlns:xlink="http://www.w3.org/1999/xlink" x="0px" y="0px"
	 width="49.5px" height="49.5px" viewBox="0 0 49.5 49.5" enable-background="new 0 0 49.5 49.5" xml:space="preserve">
<g>
	<path fill="#58595B" d="M26.3,23.8c-1.3,0-2,1-2,3.2c0,2.2,0.7,3.2,2,3.2s2-1,2-3.2S27.6,23.8,26.3,23.8z M26.3,23.8
		c-1.3,0-2,1-2,3.2c0,2.2,0.7,3.2,2,3.2s2-1,2-3.2S27.6,23.8,26.3,23.8z M30.8,0.8h-12c-9.9,0-18,8.1-18,18v12c0,9.9,8.1,18,18,18
		h12c9.9,0,18-8.1,18-18v-12C48.8,8.9,40.7,0.8,30.8,0.8z M11.7,31.6H9.5v-9.2h2.2V31.6z M10.6,20.4c-0.8,0-1.4-0.6-1.4-1.3
		c0-0.8,0.6-1.4,1.4-1.4c0.8,0,1.4,0.6,1.4,1.4C12,19.8,11.5,20.4,10.6,20.4z M18.3,30c0.7,0,1.2-0.2,1.8-0.7l1,1.5
		c-0.8,0.7-1.8,1.1-3,1.1c-2.7,0-4.3-1.8-4.3-4.8s1.6-4.9,4.3-4.9c1.2,0,2.1,0.3,3,1.1l-1,1.4c-0.6-0.5-1.2-0.7-1.8-0.7
		c-1.3,0-2.1,0.9-2.1,3.2C16.2,29.2,17,30,18.3,30z M26.3,31.8c-2.7,0-4.3-1.8-4.3-4.9c0-2.9,1.6-4.9,4.3-4.9c2.7,0,4.3,1.8,4.3,4.9
		C30.7,29.9,29,31.8,26.3,31.8z M40.3,31.6h-2.2v-6.3c0-1.1-0.4-1.5-1.1-1.5c-0.8,0-1.4,0.5-1.9,1.4v6.4h-2.2v-9.2h1.9l0.2,1.2
		c0.7-0.9,1.6-1.5,2.8-1.5c1.7,0,2.6,1.1,2.6,2.8V31.6z M26.3,23.8c-1.3,0-2,1-2,3.2c0,2.2,0.7,3.2,2,3.2s2-1,2-3.2
		S27.6,23.8,26.3,23.8z"/>
</g>
</svg>
