<svg xmlns="http://www.w3.org/2000/svg" viewBox="0 0 144 144" enable-background="new 0 0 144 144"><style type="text/css">.st0{fill:#00AC6C;} .st1{fill:#FFFFFF;}</style><path class="st0" d="M0 0h144v144h-144z"/><path class="st1" d="M14.7 34.8h.9l1.1 77.8h-.5c-7.9-11-12.7-24.5-12.9-39-.1-14.4 4.1-27.8 11.4-38.8zM57.1 71c-3 .9-6.7 1.4-11.1 1.5l-11.5.2-.5-38.2 16.2-.2c5.9-.1 10.5 1.6 13.8 5 3.3 3.4 5 8.1 5.1 14.1 0 2.9-.3 5.6-1.1 7.9-.7 2.3-2 4.3-3.8 6-1.7 1.5-4.1 2.8-7.1 3.7zM133.8 42.8c-.6.1-1.3.2-2 .2-.7.1-1.5.1-2.3.1h-2c-4-.1-8.5-.7-13.2-1.7-4.8-1.1-9.3-2.5-13.1-4.2l-1.5-.7c-.7-.3-1.4-.7-2-1-4.6-2.6-6.8-5.3-6.3-7.6.5-2.4 3.6-3.9 8.9-4.3.8-.1 1.7-.1 2.7-.1l-.9 1.2-.5.7c-.4 0-.8 0-1.2.1-4.1.3-6.9 1.4-7.2 2.8-.3 1.4 1.7 3.5 5.4 5.6.3.2.6.3.8.5.4.2.9.4 1.3.7 3.8 1.8 8.7 3.5 13.9 4.6 5.1 1.1 10.1 1.7 14.3 1.7h1.5c.4 0 .8 0 1.2-.1l1.2-.1c-.9-1.8-1.9-3.5-2.9-5.1-.2.8-.4 1.7-.8 2.4-.2.6-.5 1.1-.9 1.7-4 0-8.6-.6-13.3-1.7-4.8-1.1-9.3-2.5-13-4.2v-.6c0-1.8.3-3.5 1-5.2.3-.8.8-1.6 1.3-2.3.4-.6.8-1.2 1.3-1.7l.3-.3c1.2-1.2 2.7-2.2 4.4-2.9 1.7-.7 3.5-1.1 5.5-1.1h.3c-12.1-10.4-27.9-16.5-45-16.3-18 .3-34.3 7.5-46.4 19l23.1-.3c13-.2 22.9 2.3 29.8 7.5 6.8 5.3 10.3 12.9 10.5 22.9.1 5.8-.9 10.7-2.9 14.7-2 3.9-4.8 7.1-8.4 9.5-3.6 2.4-8 4.2-13.1 5.2-5.1 1.1-10.7 1.6-16.7 1.7l-12.2.2.4 27.9 13.9-.2.2 11.7-22.3.3c12.3 10.8 28.5 17.2 46.1 16.9 17.1-.2 32.7-6.8 44.6-17.3l-19.8.4-.2-11.7 11.4-.2-.7-47.3-11.3.2-.2-11.7 27.7-.4.8 59h2.8c8-11.4 12.6-25.3 12.4-40.3-.1-10.4-2.5-20.1-6.7-28.8zm-12 2.7c-1.7.7-3.6 1.1-5.6 1.1-2 0-3.8-.3-5.5-1-1.7-.7-3.2-1.6-4.4-2.8-1-1-1.9-2.1-2.6-3.3 3.2 1.2 6.8 2.3 10.5 3.1 3.5.8 6.9 1.3 10.2 1.6l-2.6 1.3z"/></svg>