<?xml version="1.0" encoding="utf-8"?>
<!-- Generator: Adobe Illustrator 19.1.0, SVG Export Plug-In . SVG Version: 6.00 Build 0)  -->
<svg version="1.1" id="Layer_1" xmlns="http://www.w3.org/2000/svg" xmlns:xlink="http://www.w3.org/1999/xlink" x="0px" y="0px"
	 viewBox="0 0 144 144" style="enable-background:new 0 0 144 144;" xml:space="preserve">
<style type="text/css">
	.st0{fill:#00AC6C;}
	.st1{fill:#FFFFFF;}
</style>
<rect class="st0" width="144" height="144"/>
<g>
	<path class="st1" d="M14.7,34.8l0.9,0l1.1,77.8l-0.5,0c-7.9-11-12.7-24.5-12.9-39C3.2,59.2,7.4,45.8,14.7,34.8z"/>
	<path class="st1" d="M57.1,71c-3,0.9-6.7,1.4-11.1,1.5l-11.5,0.2l-0.5-38.2l16.2-0.2c5.9-0.1,10.5,1.6,13.8,5
		c3.3,3.4,5,8.1,5.1,14.1c0,2.9-0.3,5.6-1.1,7.9c-0.7,2.3-2,4.3-3.8,6C62.5,68.8,60.1,70.1,57.1,71z"/>
	<path class="st1" d="M133.8,42.8c-0.6,0.1-1.3,0.2-2,0.2c-0.7,0.1-1.5,0.1-2.3,0.1c-0.1,0-0.2,0-0.3,0c-0.6,0-1.1,0-1.7,0
		c-4-0.1-8.5-0.7-13.2-1.7c-4.8-1.1-9.3-2.5-13.1-4.2c-0.5-0.2-1-0.5-1.5-0.7c-0.7-0.3-1.4-0.7-2-1c-4.6-2.6-6.8-5.3-6.3-7.6
		c0.5-2.4,3.6-3.9,8.9-4.3c0.8-0.1,1.7-0.1,2.7-0.1c-0.3,0.4-0.6,0.8-0.9,1.2c-0.2,0.2-0.3,0.5-0.5,0.7c-0.4,0-0.8,0-1.2,0.1
		c-4.1,0.3-6.9,1.4-7.2,2.8c-0.3,1.4,1.7,3.5,5.4,5.6c0.3,0.2,0.6,0.3,0.8,0.5c0.4,0.2,0.9,0.4,1.3,0.7c3.8,1.8,8.7,3.5,13.9,4.6
		c5.1,1.1,10.1,1.7,14.3,1.7c0.5,0,1,0,1.5,0c0.4,0,0.8,0,1.2-0.1c0.4,0,0.8-0.1,1.2-0.1c-0.9-1.8-1.9-3.5-2.9-5.1
		c-0.2,0.8-0.4,1.7-0.8,2.4c-0.2,0.6-0.5,1.1-0.9,1.7c-4,0-8.6-0.6-13.3-1.7c-4.8-1.1-9.3-2.5-13-4.2c0-0.2,0-0.4,0-0.6
		c0-1.8,0.3-3.5,1-5.2c0.3-0.8,0.8-1.6,1.3-2.3c0.4-0.6,0.8-1.2,1.3-1.7l0.3-0.3c1.2-1.2,2.7-2.2,4.4-2.9c1.7-0.7,3.5-1.1,5.5-1.1
		c0.1,0,0.2,0,0.3,0C103.9,9.8,88.1,3.7,71,3.9c-18,0.3-34.3,7.5-46.4,19l23.1-0.3c13-0.2,22.9,2.3,29.8,7.5
		C84.3,35.4,87.8,43,88,53c0.1,5.8-0.9,10.7-2.9,14.7c-2,3.9-4.8,7.1-8.4,9.5c-3.6,2.4-8,4.2-13.1,5.2c-5.1,1.1-10.7,1.6-16.7,1.7
		l-12.2,0.2l0.4,27.9l13.9-0.2l0.2,11.7l-22.3,0.3c12.3,10.8,28.5,17.2,46.1,16.9c17.1-0.2,32.7-6.8,44.6-17.3L97.8,124l-0.2-11.7
		l11.4-0.2l-0.7-47.3L97,65l-0.2-11.7l27.7-0.4l0.8,59l2.8,0c8-11.4,12.6-25.3,12.4-40.3C140.4,61.2,138,51.5,133.8,42.8z
		 M121.8,45.5c-1.7,0.7-3.6,1.1-5.6,1.1c-2,0-3.8-0.3-5.5-1c-1.7-0.7-3.2-1.6-4.4-2.8c-1-1-1.9-2.1-2.6-3.3
		c3.2,1.2,6.8,2.3,10.5,3.1c3.5,0.8,6.9,1.3,10.2,1.6C123.4,44.7,122.6,45.1,121.8,45.5z"/>
</g>
</svg>
